<?xml version="1.0" standalone="no"?>
<!DOCTYPE svg PUBLIC "-//W3C//DTD SVG 20010904//EN"
 "http://www.w3.org/TR/2001/REC-SVG-20010904/DTD/svg10.dtd">
<svg version="1.0" xmlns="http://www.w3.org/2000/svg"
 width="155.000000pt" height="42.000000pt" viewBox="0 0 155.000000 42.000000"
 preserveAspectRatio="xMidYMid meet">

<g transform="translate(0.000000,42.000000) scale(0.100000,-0.100000)"
fill="#000000" stroke="none">
<path d="M722 404 c-21 -15 -22 -21 -22 -193 0 -124 4 -181 12 -189 7 -7 31
-12 55 -12 55 0 63 15 63 124 l0 86 -35 0 c-24 0 -35 -5 -35 -15 0 -8 9 -15
20 -15 18 0 20 -7 20 -69 0 -75 -13 -98 -50 -86 -19 6 -20 14 -20 176 0 148 2
170 16 176 30 11 49 -11 52 -61 4 -64 26 -55 30 11 3 44 0 54 -20 67 -28 20
-57 20 -86 0z"/>
<path d="M10 395 c0 -10 11 -15 35 -15 l35 0 0 -185 c0 -158 2 -185 15 -185
13 0 15 27 15 184 l0 185 32 3 c17 2 33 9 36 16 3 9 -18 12 -82 12 -70 0 -86
-3 -86 -15z"/>
<path d="M258 223 l-3 -188 -25 0 -25 0 -3 148 c-2 121 -5 147 -17 147 -22 0
-27 -36 -23 -174 2 -99 6 -129 18 -136 21 -14 84 -12 98 2 8 8 12 64 12 185
l0 173 35 0 35 0 0 -76 c0 -67 -2 -76 -20 -81 -11 -3 -20 -11 -20 -18 0 -7 9
-15 20 -18 18 -5 20 -14 20 -91 0 -70 3 -86 15 -86 12 0 15 16 15 88 0 55 -4
92 -12 100 -9 9 -9 12 0 12 17 0 17 171 0 188 -7 7 -36 12 -65 12 l-53 0 -2
-187z"/>
<path d="M440 210 c0 -171 2 -200 15 -200 13 0 15 29 15 200 0 171 -2 200 -15
200 -13 0 -15 -29 -15 -200z"/>
<path d="M530 210 c0 -171 2 -200 15 -200 12 0 15 21 16 123 l1 122 24 -100
c13 -55 26 -110 29 -122 3 -13 12 -23 20 -23 13 0 15 30 15 200 0 171 -2 200
-15 200 -12 0 -15 -21 -16 -122 l-1 -123 -20 85 c-34 148 -38 160 -53 160 -13
0 -15 -31 -15 -200z"/>
<path d="M920 210 l0 -200 50 0 c37 0 50 4 50 14 0 9 -12 16 -32 18 l-33 3 -3
183 c-2 153 -5 182 -17 182 -13 0 -15 -30 -15 -200z"/>
<path d="M1086 398 c-2 -7 -12 -83 -21 -168 -8 -85 -18 -170 -21 -188 -8 -44
24 -46 33 -2 4 25 10 30 33 30 23 0 29 -5 34 -30 3 -18 12 -30 21 -30 13 0 15
9 10 48 -4 26 -14 115 -24 197 -16 142 -18 150 -39 153 -12 2 -24 -3 -26 -10z
m38 -180 c4 -46 9 -91 12 -100 4 -15 -1 -18 -26 -18 -25 0 -30 3 -26 18 3 9 8
54 12 100 4 45 10 82 14 82 4 0 10 -37 14 -82z"/>
<path d="M1210 210 l0 -200 44 0 c24 0 48 6 54 13 15 17 15 357 0 374 -6 7
-30 13 -54 13 l-44 0 0 -200z m78 93 c-3 -62 -5 -68 -25 -71 -22 -3 -23 0 -23
67 0 69 1 71 25 71 26 0 26 -1 23 -67z m0 -185 c-3 -67 -5 -73 -25 -76 -22 -3
-23 0 -23 72 0 75 0 76 25 76 26 0 26 -1 23 -72z"/>
<path d="M1370 391 c-5 -11 -10 -46 -10 -79 0 -55 3 -64 40 -108 38 -46 40
-53 38 -104 -3 -47 -6 -55 -23 -55 -17 0 -20 8 -23 47 -2 36 -6 46 -18 41 -22
-8 -19 -88 6 -113 24 -24 38 -25 68 -4 19 13 22 24 22 83 0 66 -2 71 -40 117
-38 46 -40 53 -38 104 3 47 6 55 23 55 17 0 20 -8 23 -48 2 -32 7 -47 15 -44
16 5 21 95 6 113 -18 21 -76 18 -89 -5z"/>
<path d="M1501 36 c-9 -10 -8 -16 3 -25 10 -9 16 -8 25 3 9 10 8 16 -3 25 -10
9 -16 8 -25 -3z"/>
</g>
</svg>
